<svg width="240" height="80" viewBox="0 0 240 80" fill="none" xmlns="http://www.w3.org/2000/svg">
  <!-- Brain/Ball Mark -->
  <g transform="translate(8, 8)">
    <!-- Outer circle -->
    <path d="M32 8 Q 38 8, 44 10 Q 52 14, 56 22 Q 60 30, 58 38 Q 56 46, 50 52 Q 44 58, 36 60 Q 28 62, 20 58 Q 12 54, 8 46 Q 4 38, 6 30 Q 8 22, 14 14 Q 20 8, 28 8 Z" 
          fill="none" stroke="#00E06A" stroke-width="3" stroke-linecap="round" stroke-linejoin="round"/>
    
    <!-- Neural network lines inside -->
    <path d="M 18 20 Q 24 16, 32 20 M 32 20 Q 40 16, 46 20" 
          stroke="#00E06A" stroke-width="2.5" stroke-linecap="round" fill="none"/>
    <path d="M 46 20 Q 50 26, 48 32 M 48 32 Q 50 38, 46 44" 
          stroke="#00E06A" stroke-width="2.5" stroke-linecap="round" fill="none"/>
    <path d="M 46 44 Q 40 48, 32 44 M 32 44 Q 24 48, 18 44" 
          stroke="#00E06A" stroke-width="2.5" stroke-linecap="round" fill="none"/>
    <path d="M 18 44 Q 14 38, 16 32 M 16 32 Q 14 26, 18 20" 
          stroke="#00E06A" stroke-width="2.5" stroke-linecap="round" fill="none"/>
    <path d="M 20 26 L 32 32 L 44 26 M 32 32 L 32 40 M 20 38 L 32 32 L 44 38" 
          stroke="#00E06A" stroke-width="2" stroke-linecap="round" fill="none"/>
    
    <!-- Center node -->
    <circle cx="32" cy="32" r="3" fill="#00E06A"/>
  </g>
  
  <!-- Fynetic Text -->
  <text x="84" y="52" font-family="system-ui, -apple-system, sans-serif" font-size="36" font-weight="700" fill="#F1F5F9" letter-spacing="-0.02em">Fynetic</text>
</svg>
